<svg width="25" height="23" viewBox="0 0 25 23" fill="none" xmlns="http://www.w3.org/2000/svg">
<rect width="25" height="23" rx="5" fill="#D9D9D9"/>
<path d="M17.8084 7H8.19161C8.09143 7 7.92114 6.94 8.04135 6.7C8.19161 6.4 8.79266 6.3 8.94292 6.3C9.06313 6.06 9.3121 6 9.42156 6H14.5026H16.456C16.8167 6 17.007 6.2 17.0571 6.3C17.5079 6.3 17.8084 6.6 17.9587 6.8C18.0789 6.96 17.9086 7 17.8084 7Z" stroke="white"/>
<path d="M9.18644 17.1818L8 9H18C17.661 11.4545 16.9492 16.5273 16.8136 17.1818C16.678 17.8364 16.0791 18 15.7966 18H10.3729C9.55932 18 9.24294 17.4545 9.18644 17.1818Z" stroke="white"/>
<path d="M11 6C11 5.66667 11.1333 5 11.6667 5C12.2 5 13.6667 5 14.3333 5C14.5556 5.06667 15 5.36 15 6" stroke="white"/>
<path d="M10.5 10L11 16M13 10V16M15.5 10L15 16" stroke="white"/>
</svg>
